<svg width="26" height="20" viewBox="0 0 26 20" fill="none" xmlns="http://www.w3.org/2000/svg">
<path d="M23.8333 0H7.58333C6.83583 0 6.25083 0.388889 5.86083 0.977778L0 10L5.86083 19.0111C6.25083 19.6 6.83583 20 7.58333 20H23.8333C25.025 20 26 19 26 17.7778V2.22222C26 1 25.025 0 23.8333 0ZM20.5833 13.9889L19.0558 15.5556L15.1667 11.5667L11.2775 15.5556L9.75 13.9889L13.6392 10L9.75 6.01111L11.2775 4.44444L15.1667 8.43333L19.0558 4.44444L20.5833 6.01111L16.6942 10L20.5833 13.9889Z" fill="#E5E1FF"/>
</svg>
