<svg width="18" height="24" viewBox="0 0 18 24" fill="none" xmlns="http://www.w3.org/2000/svg">
<path d="M9.112 23.384C6.12533 23.384 3.90666 22.3813 2.456 20.376C1.02666 18.3493 0.311996 15.5013 0.311996 11.832C0.311996 8.16267 1.02666 5.32533 2.456 3.32C3.90666 1.29333 6.12533 0.279999 9.112 0.279999C10.264 0.279999 11.2773 0.439999 12.152 0.759998C13.048 1.05866 13.816 1.48533 14.456 2.04C15.096 2.59467 15.6187 3.26667 16.024 4.056C16.4507 4.84533 16.7813 5.73067 17.016 6.712L12.536 7.8C12.408 7.26667 12.2587 6.776 12.088 6.328C11.9173 5.88 11.6933 5.496 11.416 5.176C11.16 4.856 10.8293 4.61067 10.424 4.44C10.04 4.248 9.57066 4.152 9.016 4.152C7.71466 4.152 6.78666 4.664 6.232 5.688C5.69866 6.69067 5.432 8.088 5.432 9.88V13.784C5.432 15.576 5.69866 16.984 6.232 18.008C6.78666 19.0107 7.71466 19.512 9.016 19.512C10.1253 19.512 10.9253 19.1707 11.416 18.488C11.928 17.8053 12.3013 16.9307 12.536 15.864L17.016 16.952C16.7813 17.9333 16.4507 18.8187 16.024 19.608C15.6187 20.3973 15.096 21.08 14.456 21.656C13.816 22.2107 13.048 22.6373 12.152 22.936C11.2773 23.2347 10.264 23.384 9.112 23.384Z" fill="#E6E1FF"/>
</svg>
