<svg width="22" height="25" viewBox="0 0 22 25" fill="none" xmlns="http://www.w3.org/2000/svg">
<path d="M0 15.1721V9.8279H22V15.1721H0ZM11 25C9.52101 25 8.47339 24.6981 7.85714 24.0942C7.2409 23.4903 6.93277 22.7506 6.93277 21.875V20.788C6.93277 19.9124 7.2409 19.1727 7.85714 18.5688C8.47339 17.965 9.52101 17.663 11 17.663C12.479 17.663 13.5266 17.965 14.1429 18.5688C14.7591 19.1727 15.0672 19.9124 15.0672 20.788V21.875C15.0672 22.7506 14.7591 23.4903 14.1429 24.0942C13.5266 24.6981 12.479 25 11 25ZM11 7.33696C9.52101 7.33696 8.47339 7.03502 7.85714 6.43116C7.2409 5.82729 6.93277 5.08756 6.93277 4.21196V3.125C6.93277 2.2494 7.2409 1.50966 7.85714 0.905796C8.47339 0.301932 9.52101 0 11 0C12.479 0 13.5266 0.301932 14.1429 0.905796C14.7591 1.50966 15.0672 2.2494 15.0672 3.125V4.21196C15.0672 5.08756 14.7591 5.82729 14.1429 6.43116C13.5266 7.03502 12.479 7.33696 11 7.33696Z" fill="#8873FF"/>
</svg>
