<svg width="20" height="24" viewBox="0 0 20 24" fill="none" xmlns="http://www.w3.org/2000/svg">
<path d="M5.28 12.184C3.68 12.184 2.44267 11.6613 1.568 10.616C0.693333 9.54933 0.255999 8.088 0.255999 6.232C0.255999 4.376 0.693333 2.92533 1.568 1.88C2.44267 0.813332 3.68 0.279999 5.28 0.279999C6.88 0.279999 8.11733 0.813332 8.992 1.88C9.86667 2.92533 10.304 4.376 10.304 6.232C10.304 8.088 9.86667 9.54933 8.992 10.616C8.11733 11.6613 6.88 12.184 5.28 12.184ZM5.28 9.4C5.89867 9.4 6.32533 9.176 6.56 8.728C6.816 8.28 6.944 7.68267 6.944 6.936V5.528C6.944 4.78133 6.816 4.184 6.56 3.736C6.32533 3.288 5.89867 3.064 5.28 3.064C4.66133 3.064 4.224 3.288 3.968 3.736C3.73333 4.184 3.616 4.78133 3.616 5.528V6.936C3.616 7.68267 3.73333 8.28 3.968 8.728C4.224 9.176 4.66133 9.4 5.28 9.4ZM15.52 0.664H19.136L14.304 10.264H10.688L15.52 0.664ZM4.896 13.4H8.512L3.68 23H0.0639992L4.896 13.4ZM13.952 23.384C12.352 23.384 11.1147 22.8613 10.24 21.816C9.36533 20.7493 8.928 19.288 8.928 17.432C8.928 15.576 9.36533 14.1253 10.24 13.08C11.1147 12.0133 12.352 11.48 13.952 11.48C15.552 11.48 16.7893 12.0133 17.664 13.08C18.5387 14.1253 18.976 15.576 18.976 17.432C18.976 19.288 18.5387 20.7493 17.664 21.816C16.7893 22.8613 15.552 23.384 13.952 23.384ZM13.952 20.6C14.5707 20.6 14.9973 20.376 15.232 19.928C15.488 19.48 15.616 18.8827 15.616 18.136V16.728C15.616 15.9813 15.488 15.384 15.232 14.936C14.9973 14.488 14.5707 14.264 13.952 14.264C13.3333 14.264 12.896 14.488 12.64 14.936C12.4053 15.384 12.288 15.9813 12.288 16.728V18.136C12.288 18.8827 12.4053 19.48 12.64 19.928C12.896 20.376 13.3333 20.6 13.952 20.6Z" fill="#8873FF"/>
</svg>
