<svg width="28" height="30" viewBox="0 0 28 30" fill="none" xmlns="http://www.w3.org/2000/svg">
<path d="M0.568001 15.048C0.568001 13.4907 0.738667 11.9973 1.08 10.568C1.44267 9.11733 1.92267 7.77333 2.52 6.536C3.13867 5.29867 3.85333 4.18933 4.664 3.208C5.47467 2.20533 6.328 1.36267 7.224 0.679998H11.96C10.9573 1.36267 10.008 2.16267 9.112 3.08C8.216 3.976 7.42667 4.968 6.744 6.056C6.08267 7.144 5.54933 8.30667 5.144 9.544C4.73867 10.7813 4.536 12.072 4.536 13.416V16.68C4.536 18.024 4.73867 19.3147 5.144 20.552C5.54933 21.7893 6.08267 22.952 6.744 24.04C7.42667 25.128 8.216 26.12 9.112 27.016C10.008 27.9333 10.9573 28.7333 11.96 29.416H7.224C6.328 28.7547 5.47467 27.9227 4.664 26.92C3.85333 25.9173 3.13867 24.7973 2.52 23.56C1.92267 22.3227 1.44267 20.9893 1.08 19.56C0.738667 18.1093 0.568001 16.6053 0.568001 15.048Z" fill="#8873FF"/>
<path d="M27.8195 15.048C27.8195 16.6053 27.6382 18.1093 27.2755 19.56C26.9342 20.9893 26.4542 22.3227 25.8355 23.56C25.2382 24.7973 24.5342 25.9173 23.7235 26.92C22.9128 27.9227 22.0595 28.7547 21.1635 29.416H16.4275C17.4088 28.7333 18.3475 27.9333 19.2435 27.016C20.1608 26.12 20.9502 25.128 21.6115 24.04C22.2942 22.952 22.8382 21.7893 23.2435 20.552C23.6488 19.3147 23.8515 18.024 23.8515 16.68V13.416C23.8515 12.072 23.6488 10.7813 23.2435 9.544C22.8382 8.30667 22.2942 7.144 21.6115 6.056C20.9502 4.968 20.1608 3.976 19.2435 3.08C18.3475 2.16267 17.4088 1.36267 16.4275 0.679998H21.1635C22.0595 1.36267 22.9128 2.20533 23.7235 3.208C24.5342 4.18933 25.2382 5.29867 25.8355 6.536C26.4542 7.77333 26.9342 9.11733 27.2755 10.568C27.6382 11.9973 27.8195 13.4907 27.8195 15.048Z" fill="#8873FF"/>
</svg>
